<mxfile host="app.diagrams.net" modified="2020-08-23T02:06:55.765Z" agent="5.0 (X11)" etag="6OCxHCw5XnVy1IuqCFYe" version="13.6.2" type="github">
  <diagram id="kgpKYQtTHZ0yAKxKKP6v" name="Page-1">
    <mxGraphModel dx="900" dy="511" grid="1" gridSize="10" guides="1" tooltips="1" connect="1" arrows="1" fold="1" page="1" pageScale="1" pageWidth="850" pageHeight="1100" math="0" shadow="0">
      <root>
        <mxCell id="0" />
        <mxCell id="1" parent="0" />
        <mxCell id="3nuBFxr9cyL0pnOWT2aG-7" value="return" style="verticalAlign=bottom;endArrow=open;dashed=1;endSize=8;exitX=0;exitY=0.95;shadow=0;strokeWidth=1;" parent="1" edge="1">
          <mxGeometry relative="1" as="geometry">
            <mxPoint x="725" y="350" as="targetPoint" />
            <mxPoint x="765" y="431.9999999999998" as="sourcePoint" />
          </mxGeometry>
        </mxCell>
        <mxCell id="3nuBFxr9cyL0pnOWT2aG-10" value="return" style="verticalAlign=bottom;endArrow=open;dashed=1;endSize=8;shadow=0;strokeWidth=1;" parent="1" edge="1">
          <mxGeometry relative="1" as="geometry">
            <mxPoint x="765" y="280" as="targetPoint" />
            <mxPoint x="780" y="190" as="sourcePoint" />
            <Array as="points" />
          </mxGeometry>
        </mxCell>
        <mxCell id="kHYQJWo_Z-2cbcVxc_VD-3" value="&lt;font style=&quot;font-size: 8px&quot;&gt;ExpenseReporterController&lt;/font&gt;" style="html=1;" parent="1" vertex="1">
          <mxGeometry x="199.16" y="110" width="94.69" height="20" as="geometry" />
        </mxCell>
        <mxCell id="kHYQJWo_Z-2cbcVxc_VD-4" value="&lt;font style=&quot;font-size: 8px&quot;&gt;ExpenseReporterService&lt;/font&gt;" style="html=1;" parent="1" vertex="1">
          <mxGeometry x="318" y="110" width="92" height="20" as="geometry" />
        </mxCell>
        <mxCell id="kHYQJWo_Z-2cbcVxc_VD-5" value="&lt;font style=&quot;font-size: 8px&quot;&gt;ExpenseReportModelMapper&lt;/font&gt;" style="html=1;" parent="1" vertex="1">
          <mxGeometry x="445.5" y="110" width="104.5" height="20" as="geometry" />
        </mxCell>
        <mxCell id="kHYQJWo_Z-2cbcVxc_VD-10" value="" style="endArrow=none;html=1;rounded=0;dashed=1;dashPattern=1 2;exitX=0.5;exitY=1;exitDx=0;exitDy=0;" parent="1" source="kHYQJWo_Z-2cbcVxc_VD-17" edge="1">
          <mxGeometry relative="1" as="geometry">
            <mxPoint x="154" y="190" as="sourcePoint" />
            <mxPoint x="247" y="870" as="targetPoint" />
          </mxGeometry>
        </mxCell>
        <mxCell id="kHYQJWo_Z-2cbcVxc_VD-11" value="1" style="resizable=0;html=1;align=right;verticalAlign=bottom;" parent="kHYQJWo_Z-2cbcVxc_VD-10" connectable="0" vertex="1">
          <mxGeometry x="1" relative="1" as="geometry" />
        </mxCell>
        <mxCell id="kHYQJWo_Z-2cbcVxc_VD-12" value="" style="endArrow=none;html=1;rounded=0;dashed=1;dashPattern=1 2;exitX=0.5;exitY=1;exitDx=0;exitDy=0;" parent="1" source="kHYQJWo_Z-2cbcVxc_VD-3" edge="1">
          <mxGeometry relative="1" as="geometry">
            <mxPoint x="259" y="150" as="sourcePoint" />
            <mxPoint x="246.5" y="220" as="targetPoint" />
          </mxGeometry>
        </mxCell>
        <mxCell id="kHYQJWo_Z-2cbcVxc_VD-13" value="" style="resizable=0;html=1;align=right;verticalAlign=bottom;" parent="kHYQJWo_Z-2cbcVxc_VD-12" connectable="0" vertex="1">
          <mxGeometry x="1" relative="1" as="geometry" />
        </mxCell>
        <mxCell id="kHYQJWo_Z-2cbcVxc_VD-14" value="" style="points=[];perimeter=orthogonalPerimeter;rounded=0;shadow=0;strokeWidth=1;" parent="1" vertex="1">
          <mxGeometry x="239" y="350" width="15" height="80" as="geometry" />
        </mxCell>
        <mxCell id="kHYQJWo_Z-2cbcVxc_VD-15" value="" style="endArrow=none;html=1;rounded=0;dashed=1;dashPattern=1 2;exitX=0.48;exitY=0.999;exitDx=0;exitDy=0;exitPerimeter=0;" parent="1" source="kHYQJWo_Z-2cbcVxc_VD-22" target="kHYQJWo_Z-2cbcVxc_VD-14" edge="1">
          <mxGeometry relative="1" as="geometry">
            <mxPoint x="246.5" y="300" as="sourcePoint" />
            <mxPoint x="259" y="864.7999877929688" as="targetPoint" />
          </mxGeometry>
        </mxCell>
        <mxCell id="kHYQJWo_Z-2cbcVxc_VD-16" value="" style="resizable=0;html=1;align=right;verticalAlign=bottom;" parent="kHYQJWo_Z-2cbcVxc_VD-15" connectable="0" vertex="1">
          <mxGeometry x="1" relative="1" as="geometry" />
        </mxCell>
        <mxCell id="kHYQJWo_Z-2cbcVxc_VD-17" value="" style="points=[];perimeter=orthogonalPerimeter;rounded=0;shadow=0;strokeWidth=1;" parent="1" vertex="1">
          <mxGeometry x="239" y="480" width="15" height="80" as="geometry" />
        </mxCell>
        <mxCell id="kHYQJWo_Z-2cbcVxc_VD-18" value="" style="endArrow=none;html=1;rounded=0;dashed=1;dashPattern=1 2;exitX=0.5;exitY=1;exitDx=0;exitDy=0;" parent="1" source="kHYQJWo_Z-2cbcVxc_VD-14" target="kHYQJWo_Z-2cbcVxc_VD-17" edge="1">
          <mxGeometry relative="1" as="geometry">
            <mxPoint x="249" y="430" as="sourcePoint" />
            <mxPoint x="259" y="864.7999877929688" as="targetPoint" />
            <Array as="points">
              <mxPoint x="247" y="460" />
              <mxPoint x="247" y="470" />
              <mxPoint x="247" y="480" />
            </Array>
          </mxGeometry>
        </mxCell>
        <mxCell id="kHYQJWo_Z-2cbcVxc_VD-19" value="" style="resizable=0;html=1;align=right;verticalAlign=bottom;" parent="kHYQJWo_Z-2cbcVxc_VD-18" connectable="0" vertex="1">
          <mxGeometry x="1" relative="1" as="geometry" />
        </mxCell>
        <mxCell id="kHYQJWo_Z-2cbcVxc_VD-28" style="edgeStyle=orthogonalEdgeStyle;rounded=0;orthogonalLoop=1;jettySize=auto;html=1;exitX=0.5;exitY=0;exitDx=0;exitDy=0;exitPerimeter=0;" parent="1" source="kHYQJWo_Z-2cbcVxc_VD-21" edge="1">
          <mxGeometry relative="1" as="geometry">
            <mxPoint x="120" y="130" as="targetPoint" />
            <Array as="points">
              <mxPoint x="46" y="80" />
            </Array>
          </mxGeometry>
        </mxCell>
        <mxCell id="kHYQJWo_Z-2cbcVxc_VD-21" value="Actor" style="shape=umlActor;verticalLabelPosition=bottom;verticalAlign=top;html=1;" parent="1" vertex="1">
          <mxGeometry x="31" y="95" width="30" height="60" as="geometry" />
        </mxCell>
        <mxCell id="kHYQJWo_Z-2cbcVxc_VD-22" value="" style="points=[];perimeter=orthogonalPerimeter;rounded=0;shadow=0;strokeWidth=1;" parent="1" vertex="1">
          <mxGeometry x="239" y="170" width="15" height="80" as="geometry" />
        </mxCell>
        <mxCell id="kHYQJWo_Z-2cbcVxc_VD-26" value="&lt;span style=&quot;background-color: rgb(255 , 255 , 255)&quot;&gt;Search Ui&lt;/span&gt;" style="rounded=1;whiteSpace=wrap;html=1;labelBackgroundColor=#FFB366;" parent="1" vertex="1">
          <mxGeometry x="70" y="130" width="110" height="40" as="geometry" />
        </mxCell>
        <mxCell id="kHYQJWo_Z-2cbcVxc_VD-29" value="" style="endArrow=none;dashed=1;html=1;entryX=0.457;entryY=1.056;entryDx=0;entryDy=0;entryPerimeter=0;" parent="1" target="kHYQJWo_Z-2cbcVxc_VD-26" edge="1">
          <mxGeometry width="50" height="50" relative="1" as="geometry">
            <mxPoint x="120" y="881.066650390625" as="sourcePoint" />
            <mxPoint x="200" y="190" as="targetPoint" />
          </mxGeometry>
        </mxCell>
        <mxCell id="kHYQJWo_Z-2cbcVxc_VD-31" value="&lt;font style=&quot;font-size: 8px&quot;&gt;ExpenseReporterInfoService&lt;/font&gt;" style="html=1;" parent="1" vertex="1">
          <mxGeometry x="570" y="110" width="110" height="20" as="geometry" />
        </mxCell>
        <mxCell id="kHYQJWo_Z-2cbcVxc_VD-35" value="" style="endArrow=none;html=1;rounded=0;dashed=1;dashPattern=1 2;exitX=0.5;exitY=1;exitDx=0;exitDy=0;" parent="1" source="kHYQJWo_Z-2cbcVxc_VD-34" edge="1">
          <mxGeometry relative="1" as="geometry">
            <mxPoint x="365.25" y="130" as="sourcePoint" />
            <mxPoint x="365.2550000000001" y="220" as="targetPoint" />
          </mxGeometry>
        </mxCell>
        <mxCell id="kHYQJWo_Z-2cbcVxc_VD-36" value="" style="resizable=0;html=1;align=right;verticalAlign=bottom;" parent="kHYQJWo_Z-2cbcVxc_VD-35" connectable="0" vertex="1">
          <mxGeometry x="1" relative="1" as="geometry" />
        </mxCell>
        <mxCell id="kHYQJWo_Z-2cbcVxc_VD-34" value="" style="points=[];perimeter=orthogonalPerimeter;rounded=0;shadow=0;strokeWidth=1;" parent="1" vertex="1">
          <mxGeometry x="358" y="170" width="15" height="80" as="geometry" />
        </mxCell>
        <mxCell id="kHYQJWo_Z-2cbcVxc_VD-37" value="" style="endArrow=none;html=1;rounded=0;dashed=1;dashPattern=1 2;exitX=0.5;exitY=1;exitDx=0;exitDy=0;" parent="1" target="kHYQJWo_Z-2cbcVxc_VD-34" edge="1">
          <mxGeometry relative="1" as="geometry">
            <mxPoint x="365.25" y="130" as="sourcePoint" />
            <mxPoint x="365.2550000000001" y="220" as="targetPoint" />
          </mxGeometry>
        </mxCell>
        <mxCell id="kHYQJWo_Z-2cbcVxc_VD-38" value="" style="resizable=0;html=1;align=right;verticalAlign=bottom;" parent="kHYQJWo_Z-2cbcVxc_VD-37" connectable="0" vertex="1">
          <mxGeometry x="1" relative="1" as="geometry" />
        </mxCell>
        <mxCell id="kHYQJWo_Z-2cbcVxc_VD-39" value="" style="endArrow=classic;html=1;entryX=-0.12;entryY=0.259;entryDx=0;entryDy=0;entryPerimeter=0;" parent="1" source="kHYQJWo_Z-2cbcVxc_VD-22" target="kHYQJWo_Z-2cbcVxc_VD-34" edge="1">
          <mxGeometry width="50" height="50" relative="1" as="geometry">
            <mxPoint x="258" y="191" as="sourcePoint" />
            <mxPoint x="304" y="185" as="targetPoint" />
          </mxGeometry>
        </mxCell>
        <mxCell id="kHYQJWo_Z-2cbcVxc_VD-45" value="" style="points=[];perimeter=orthogonalPerimeter;rounded=0;shadow=0;strokeWidth=1;" parent="1" vertex="1">
          <mxGeometry x="478" y="170" width="15" height="80" as="geometry" />
        </mxCell>
        <mxCell id="kHYQJWo_Z-2cbcVxc_VD-46" value="" style="endArrow=none;html=1;rounded=0;dashed=1;dashPattern=1 2;exitX=0.5;exitY=1;exitDx=0;exitDy=0;" parent="1" edge="1">
          <mxGeometry relative="1" as="geometry">
            <mxPoint x="485.5" y="130" as="sourcePoint" />
            <mxPoint x="485.5" y="170" as="targetPoint" />
            <Array as="points">
              <mxPoint x="485.25" y="150" />
            </Array>
          </mxGeometry>
        </mxCell>
        <mxCell id="kHYQJWo_Z-2cbcVxc_VD-47" value="" style="resizable=0;html=1;align=right;verticalAlign=bottom;" parent="kHYQJWo_Z-2cbcVxc_VD-46" connectable="0" vertex="1">
          <mxGeometry x="1" relative="1" as="geometry" />
        </mxCell>
        <mxCell id="kHYQJWo_Z-2cbcVxc_VD-48" value="" style="endArrow=classic;html=1;entryX=-0.12;entryY=0.259;entryDx=0;entryDy=0;entryPerimeter=0;" parent="1" edge="1">
          <mxGeometry width="50" height="50" relative="1" as="geometry">
            <mxPoint x="373" y="190" as="sourcePoint" />
            <mxPoint x="475.20000000000005" y="190" as="targetPoint" />
            <Array as="points">
              <mxPoint x="418" y="190" />
            </Array>
          </mxGeometry>
        </mxCell>
        <UserObject label="&lt;div&gt;&lt;font style=&quot;font-size: 8px&quot;&gt;call method &lt;br&gt;&lt;/font&gt;&lt;/div&gt;&lt;div&gt;&lt;font style=&quot;font-size: 8px&quot;&gt;selectUserExpense(Long userId,Long statusCode)&lt;/font&gt;&lt;/div&gt;" placeholders="1" name="Variable" id="sm6QpTikc6FArxqx8qji-1">
          <mxCell style="text;html=1;strokeColor=none;fillColor=none;align=center;verticalAlign=middle;whiteSpace=wrap;overflow=hidden;" vertex="1" parent="1">
            <mxGeometry x="205.31" y="140" width="170" height="45" as="geometry" />
          </mxCell>
        </UserObject>
        <UserObject label="&lt;font style=&quot;font-size: 8px&quot;&gt;access database&lt;/font&gt;" placeholders="1" name="Variable" id="sm6QpTikc6FArxqx8qji-2">
          <mxCell style="text;html=1;strokeColor=none;fillColor=none;align=center;verticalAlign=middle;whiteSpace=wrap;overflow=hidden;" vertex="1" parent="1">
            <mxGeometry x="388" y="165" width="80" height="20" as="geometry" />
          </mxCell>
        </UserObject>
        <mxCell id="sm6QpTikc6FArxqx8qji-5" value="" style="endArrow=classic;html=1;entryX=1.022;entryY=0.713;entryDx=0;entryDy=0;entryPerimeter=0;exitX=0;exitY=0.713;exitDx=0;exitDy=0;exitPerimeter=0;" edge="1" parent="1" source="kHYQJWo_Z-2cbcVxc_VD-45" target="kHYQJWo_Z-2cbcVxc_VD-34">
          <mxGeometry width="50" height="50" relative="1" as="geometry">
            <mxPoint x="468" y="260" as="sourcePoint" />
            <mxPoint x="348" y="260" as="targetPoint" />
            <Array as="points" />
          </mxGeometry>
        </mxCell>
        <UserObject label="&lt;font style=&quot;font-size: 8px&quot;&gt;return original&amp;nbsp; data&lt;/font&gt;" placeholders="1" name="Variable" id="sm6QpTikc6FArxqx8qji-6">
          <mxCell style="text;html=1;strokeColor=none;fillColor=none;align=center;verticalAlign=middle;whiteSpace=wrap;overflow=hidden;" vertex="1" parent="1">
            <mxGeometry x="368" y="230" width="110" height="20" as="geometry" />
          </mxCell>
        </UserObject>
        <mxCell id="sm6QpTikc6FArxqx8qji-8" value="" style="endArrow=classic;html=1;entryX=1.022;entryY=0.713;entryDx=0;entryDy=0;entryPerimeter=0;exitX=0;exitY=0.713;exitDx=0;exitDy=0;exitPerimeter=0;" edge="1" parent="1">
          <mxGeometry width="50" height="50" relative="1" as="geometry">
            <mxPoint x="358" y="230" as="sourcePoint" />
            <mxPoint x="253.32999999999993" y="230" as="targetPoint" />
            <Array as="points" />
          </mxGeometry>
        </mxCell>
        <UserObject label="&lt;font style=&quot;font-size: 8px&quot;&gt;return to&amp;nbsp; page&lt;br&gt;&lt;/font&gt;" placeholders="1" name="Variable" id="sm6QpTikc6FArxqx8qji-9">
          <mxCell style="text;html=1;strokeColor=none;fillColor=none;align=center;verticalAlign=middle;whiteSpace=wrap;overflow=hidden;" vertex="1" parent="1">
            <mxGeometry x="248" y="230" width="110" height="20" as="geometry" />
          </mxCell>
        </UserObject>
      </root>
    </mxGraphModel>
  </diagram>
</mxfile>
